<svg xmlns="http://www.w3.org/2000/svg" xmlns:xlink="http://www.w3.org/1999/xlink" width="97" zoomAndPan="magnify" viewBox="0 0 72.75 79.499998" height="106" preserveAspectRatio="xMidYMid meet" version="1.0"><defs><clipPath id="405bfba197"><path d="M 0.101562 0 L 72.398438 0 L 72.398438 79.003906 L 0.101562 79.003906 Z M 0.101562 0 " clip-rule="nonzero"/></clipPath><clipPath id="569fc1fda0"><path d="M 0.101562 44 L 27 44 L 27 78 L 0.101562 78 Z M 0.101562 44 " clip-rule="nonzero"/></clipPath><clipPath id="17765ba7ae"><path d="M 61.613281 0.0742188 L 72.386719 0.0742188 L 72.386719 13.742188 L 61.613281 13.742188 Z M 61.613281 0.0742188 " clip-rule="nonzero"/></clipPath><clipPath id="fb74099923"><path d="M 16.113281 75.953125 L 19.484375 75.953125 L 19.484375 78.195312 L 16.113281 78.195312 Z M 16.113281 75.953125 " clip-rule="nonzero"/></clipPath><clipPath id="97baccd45c"><path d="M 0.101562 44 L 27 44 L 27 78 L 0.101562 78 Z M 0.101562 44 " clip-rule="nonzero"/></clipPath><clipPath id="ca136a436e"><path d="M 61.613281 0.0742188 L 72.386719 0.0742188 L 72.386719 13.742188 L 61.613281 13.742188 Z M 61.613281 0.0742188 " clip-rule="nonzero"/></clipPath><clipPath id="bb04edf8d6"><path d="M 16.113281 75.953125 L 19.484375 75.953125 L 19.484375 78.195312 L 16.113281 78.195312 Z M 16.113281 75.953125 " clip-rule="nonzero"/></clipPath></defs><g clip-path="url(#405bfba197)"><path fill="#ffffff" d="M 0.101562 0 L 72.398438 0 L 72.398438 79.003906 L 0.101562 79.003906 Z M 0.101562 0 " fill-opacity="1" fill-rule="nonzero"/></g><g clip-path="url(#569fc1fda0)"><path fill="#000000" d="M 13.304688 65.519531 C 8.464844 65.519531 4.542969 61.621094 4.542969 56.816406 C 4.542969 52.007812 8.464844 48.113281 13.304688 48.113281 C 18.144531 48.113281 22.066406 52.007812 22.066406 56.816406 C 22.066406 61.621094 18.144531 65.519531 13.304688 65.519531 Z M 13.304688 44.042969 C 6.011719 44.042969 0.101562 49.914062 0.101562 57.152344 C 0.101562 64.394531 11.484375 77.953125 13.304688 77.953125 C 15.238281 77.953125 26.503906 64.394531 26.503906 57.152344 C 26.503906 49.914062 20.59375 44.042969 13.304688 44.042969 " fill-opacity="1" fill-rule="nonzero"/></g><g clip-path="url(#17765ba7ae)"><path fill="#000000" d="M 67.105469 8.664062 C 65.167969 8.664062 63.601562 7.105469 63.601562 5.183594 C 63.601562 3.257812 65.167969 1.699219 67.105469 1.699219 C 69.039062 1.699219 70.609375 3.257812 70.609375 5.183594 C 70.609375 7.105469 69.039062 8.664062 67.105469 8.664062 Z M 67.105469 0.0742188 C 64.1875 0.0742188 61.824219 2.421875 61.824219 5.316406 C 61.824219 8.214844 66.375 13.636719 67.105469 13.636719 C 67.878906 13.636719 72.386719 8.214844 72.386719 5.316406 C 72.386719 2.421875 70.023438 0.0742188 67.105469 0.0742188 " fill-opacity="1" fill-rule="nonzero"/></g><path fill="#000000" d="M 53.902344 16.742188 L 53.566406 15.433594 L 60.195312 13.859375 L 60.472656 14.933594 Z M 45.160156 19.074219 L 44.710938 17.644531 C 44.710938 17.648438 51.351562 15.988281 51.363281 15.988281 L 51.703125 17.308594 C 51.703125 17.308594 45.164062 19.070312 45.160156 19.074219 Z M 39.222656 24.289062 L 37.582031 23.828125 C 38.214844 21.597656 39.941406 19.683594 42.445312 18.433594 L 43.214844 19.949219 C 40.558594 21.273438 39.578125 23.039062 39.222656 24.289062 Z M 41.570312 32.226562 C 40.75 31.683594 40.238281 31.34375 40.132812 31.273438 L 40.074219 31.234375 C 38.511719 30.078125 37.515625 28.304688 37.339844 26.367188 L 39.039062 26.214844 C 39.171875 27.667969 39.914062 28.996094 41.082031 29.867188 C 41.375 30.058594 42.507812 30.808594 42.519531 30.816406 Z M 49.089844 37.296875 C 47.269531 36.050781 45.375 34.769531 43.457031 33.484375 L 44.414062 32.078125 C 46.335938 33.367188 48.234375 34.652344 50.058594 35.898438 Z M 56.515625 42.480469 C 54.847656 41.289062 52.976562 39.972656 50.957031 38.578125 L 51.933594 37.1875 C 53.960938 38.589844 55.835938 39.90625 57.515625 41.105469 Z M 63.734375 47.898438 C 62.359375 46.78125 60.546875 45.40625 58.351562 43.804688 L 59.359375 42.441406 C 61.582031 44.058594 63.414062 45.453125 64.8125 46.585938 Z M 69.644531 54.648438 L 67.9375 54.59375 C 67.9375 54.519531 67.941406 54.449219 67.941406 54.375 C 67.941406 53.050781 67.527344 51.777344 66.742188 50.695312 C 66.585938 50.472656 66.226562 50.058594 65.429688 49.339844 L 66.578125 48.085938 C 67.316406 48.75 67.824219 49.28125 68.128906 49.707031 C 69.121094 51.078125 69.648438 52.691406 69.648438 54.375 C 69.648438 54.46875 69.644531 54.558594 69.644531 54.648438 Z M 64.53125 62.585938 L 63.492188 61.238281 C 64.925781 60.148438 66.042969 59.039062 66.816406 57.941406 C 67.121094 57.503906 67.371094 57.027344 67.554688 56.53125 L 69.15625 57.117188 C 68.921875 57.75 68.605469 58.351562 68.214844 58.910156 C 67.339844 60.152344 66.101562 61.390625 64.53125 62.585938 Z M 56.515625 67.179688 L 55.804688 65.640625 C 58.0625 64.613281 60.039062 63.554688 61.691406 62.496094 L 62.617188 63.917969 C 60.898438 65.023438 58.847656 66.121094 56.515625 67.179688 Z M 47.984375 70.515625 L 47.433594 68.910156 C 49.707031 68.136719 51.832031 67.335938 53.75 66.535156 L 54.410156 68.097656 C 52.457031 68.914062 50.296875 69.726562 47.984375 70.515625 Z M 39.25 73.171875 L 38.796875 71.539062 C 41.066406 70.914062 43.253906 70.269531 45.289062 69.617188 L 45.816406 71.230469 C 43.753906 71.890625 41.546875 72.542969 39.25 73.171875 Z M 30.402344 75.386719 L 30.019531 73.730469 C 32.28125 73.214844 34.5 72.675781 36.613281 72.121094 L 37.046875 73.761719 C 34.914062 74.320312 32.679688 74.867188 30.402344 75.386719 Z M 21.476562 77.25 L 21.15625 75.585938 C 23.371094 75.164062 25.609375 74.707031 27.8125 74.226562 L 28.179688 75.882812 C 25.960938 76.367188 23.707031 76.828125 21.476562 77.25 " fill-opacity="1" fill-rule="nonzero"/><g clip-path="url(#fb74099923)"><path fill="#000000" d="M 18.769531 76.027344 C 17.636719 77.203125 16.699219 77.988281 16.148438 78.195312 C 16.636719 78.117188 17.722656 77.9375 19.242188 77.664062 L 18.933594 75.996094 C 18.878906 76.007812 18.824219 76.015625 18.769531 76.027344 " fill-opacity="1" fill-rule="nonzero"/></g><path fill="#000000" d="M 64.886719 12.894531 L 62.246094 13.371094 L 62.507812 14.378906 L 65.859375 13.859375 C 65.59375 13.644531 65.257812 13.308594 64.886719 12.894531 " fill-opacity="1" fill-rule="nonzero"/><g clip-path="url(#97baccd45c)"><path fill="#000000" d="M 13.304688 65.519531 C 8.464844 65.519531 4.542969 61.621094 4.542969 56.816406 C 4.542969 52.007812 8.464844 48.113281 13.304688 48.113281 C 18.144531 48.113281 22.066406 52.007812 22.066406 56.816406 C 22.066406 61.621094 18.144531 65.519531 13.304688 65.519531 Z M 13.304688 44.042969 C 6.011719 44.042969 0.101562 49.914062 0.101562 57.152344 C 0.101562 64.394531 11.484375 77.953125 13.304688 77.953125 C 15.238281 77.953125 26.503906 64.394531 26.503906 57.152344 C 26.503906 49.914062 20.59375 44.042969 13.304688 44.042969 " fill-opacity="1" fill-rule="nonzero"/></g><g clip-path="url(#ca136a436e)"><path fill="#000000" d="M 67.105469 8.664062 C 65.167969 8.664062 63.601562 7.105469 63.601562 5.183594 C 63.601562 3.257812 65.167969 1.699219 67.105469 1.699219 C 69.039062 1.699219 70.609375 3.257812 70.609375 5.183594 C 70.609375 7.105469 69.039062 8.664062 67.105469 8.664062 Z M 67.105469 0.0742188 C 64.1875 0.0742188 61.824219 2.421875 61.824219 5.316406 C 61.824219 8.214844 66.375 13.636719 67.105469 13.636719 C 67.878906 13.636719 72.386719 8.214844 72.386719 5.316406 C 72.386719 2.421875 70.023438 0.0742188 67.105469 0.0742188 " fill-opacity="1" fill-rule="nonzero"/></g><path fill="#000000" d="M 53.902344 16.742188 L 53.566406 15.433594 L 60.195312 13.859375 L 60.472656 14.933594 Z M 45.160156 19.074219 L 44.710938 17.644531 C 44.710938 17.648438 51.351562 15.988281 51.363281 15.988281 L 51.703125 17.308594 C 51.703125 17.308594 45.164062 19.070312 45.160156 19.074219 Z M 39.222656 24.289062 L 37.582031 23.828125 C 38.214844 21.597656 39.941406 19.683594 42.445312 18.433594 L 43.214844 19.949219 C 40.558594 21.273438 39.578125 23.039062 39.222656 24.289062 Z M 41.570312 32.226562 C 40.75 31.683594 40.238281 31.34375 40.132812 31.273438 L 40.074219 31.234375 C 38.511719 30.078125 37.515625 28.304688 37.339844 26.367188 L 39.039062 26.214844 C 39.171875 27.667969 39.914062 28.996094 41.082031 29.867188 C 41.375 30.058594 42.507812 30.808594 42.519531 30.816406 Z M 49.089844 37.296875 C 47.269531 36.050781 45.375 34.769531 43.457031 33.484375 L 44.414062 32.078125 C 46.335938 33.367188 48.234375 34.652344 50.058594 35.898438 Z M 56.515625 42.480469 C 54.847656 41.289062 52.976562 39.972656 50.957031 38.578125 L 51.933594 37.1875 C 53.960938 38.589844 55.835938 39.90625 57.515625 41.105469 Z M 63.734375 47.898438 C 62.359375 46.78125 60.546875 45.40625 58.351562 43.804688 L 59.359375 42.441406 C 61.582031 44.058594 63.414062 45.453125 64.8125 46.585938 Z M 69.644531 54.648438 L 67.9375 54.59375 C 67.9375 54.519531 67.941406 54.449219 67.941406 54.375 C 67.941406 53.050781 67.527344 51.777344 66.742188 50.695312 C 66.585938 50.472656 66.226562 50.058594 65.429688 49.339844 L 66.578125 48.085938 C 67.316406 48.75 67.824219 49.28125 68.128906 49.707031 C 69.121094 51.078125 69.648438 52.691406 69.648438 54.375 C 69.648438 54.46875 69.644531 54.558594 69.644531 54.648438 Z M 64.53125 62.585938 L 63.492188 61.238281 C 64.925781 60.148438 66.042969 59.039062 66.816406 57.941406 C 67.121094 57.503906 67.371094 57.027344 67.554688 56.53125 L 69.15625 57.117188 C 68.921875 57.75 68.605469 58.351562 68.214844 58.910156 C 67.339844 60.152344 66.101562 61.390625 64.53125 62.585938 Z M 56.515625 67.179688 L 55.804688 65.640625 C 58.0625 64.613281 60.039062 63.554688 61.691406 62.496094 L 62.617188 63.917969 C 60.898438 65.023438 58.847656 66.121094 56.515625 67.179688 Z M 47.984375 70.515625 L 47.433594 68.910156 C 49.707031 68.136719 51.832031 67.335938 53.75 66.535156 L 54.410156 68.097656 C 52.457031 68.914062 50.296875 69.726562 47.984375 70.515625 Z M 39.25 73.171875 L 38.796875 71.539062 C 41.066406 70.914062 43.253906 70.269531 45.289062 69.617188 L 45.816406 71.230469 C 43.753906 71.890625 41.546875 72.542969 39.25 73.171875 Z M 30.402344 75.386719 L 30.019531 73.730469 C 32.28125 73.214844 34.5 72.675781 36.613281 72.121094 L 37.046875 73.761719 C 34.914062 74.320312 32.679688 74.867188 30.402344 75.386719 Z M 21.476562 77.25 L 21.15625 75.585938 C 23.371094 75.164062 25.609375 74.707031 27.8125 74.226562 L 28.179688 75.882812 C 25.960938 76.367188 23.707031 76.828125 21.476562 77.25 " fill-opacity="1" fill-rule="nonzero"/><g clip-path="url(#bb04edf8d6)"><path fill="#000000" d="M 18.769531 76.027344 C 17.636719 77.203125 16.699219 77.988281 16.148438 78.195312 C 16.636719 78.117188 17.722656 77.9375 19.242188 77.664062 L 18.933594 75.996094 C 18.878906 76.007812 18.824219 76.015625 18.769531 76.027344 " fill-opacity="1" fill-rule="nonzero"/></g><path fill="#000000" d="M 64.886719 12.894531 L 62.246094 13.371094 L 62.507812 14.378906 L 65.859375 13.859375 C 65.59375 13.644531 65.257812 13.308594 64.886719 12.894531 " fill-opacity="1" fill-rule="nonzero"/></svg>